<?xml version="1.0" encoding="utf-8"?>
<svg xmlns="http://www.w3.org/2000/svg" height="950px" width="1226px" id="svg2" version="1.1" viewBox="0 0 1226 950">
  <defs id="defs6">
    <clipPath id="clipPath18" clipPathUnits="userSpaceOnUse">
      <path id="path16" d="M 0,405 H 1320 V 0 H 0 Z"/>
    </clipPath>
  </defs>
  <g transform="matrix(1.609775, 0, 0, -1.609775, -11.460868, 611.751526)" id="g10" style="">
    <g id="g12">
      <g clip-path="url(#clipPath18)" id="g14">
        <g transform="translate(1165.1094,265.2396)" id="g20"/>
        <g transform="translate(427.0635,141.0106)" id="g28">
          <path id="path30" style="fill:#231f20;fill-opacity:1;fill-rule:nonzero;stroke:none" d="m 0,0 0.333,-1.188 0.976,-0.878 2.288,-0.594 2.839,0.646 c 1.541,0.681 2.684,1.642 3.356,2.917 0.646,1.13 0.956,2.665 0.956,4.548 v 19.602 l 0.12,0.662 0.671,0.637 1.497,0.217 0.415,0.068 0.527,0.41 0.135,0.614 -0.073,0.434 -0.371,0.522 -0.633,0.183 H 4.177 L 3.742,28.732 3.235,28.317 3.075,27.661 3.134,27.255 3.554,26.724 4.177,26.569 H 4.2 c 1.092,0 1.907,-0.169 2.357,-0.395 L 7.054,25.734 7.232,25.15 V 4.625 C 7.232,3.472 7.088,2.549 6.919,1.859 L 6.547,0.985 6.084,0.492 5.659,0.246 5.369,0.169 5.229,0.208 4.867,0.449 4.259,1 3.211,1.907 2.144,2.255 1.352,2.091 0.666,1.584 0.174,0.85 0,0"/>
        </g>
        <g transform="translate(502.8369,159.9999)" id="g32">
          <path id="path34" style="fill:#231f20;fill-opacity:1;fill-rule:nonzero;stroke:none" d="m 0,0 0.454,-0.482 0.671,-0.122 0.782,-0.101 0.184,-0.082 0.033,-0.044 0.02,-0.11 0.067,-1.289 v -10.236 l -0.043,-0.372 -0.285,-0.319 -0.758,-0.12 -0.42,-0.063 -0.502,-0.377 -0.218,-0.603 v -0.019 l 0.077,-0.445 0.392,-0.511 0.628,-0.184 H 6.77 l 0.424,0.087 0.507,0.405 0.164,0.623 -0.057,0.416 -0.426,0.507 -0.612,0.164 -0.792,0.024 -0.204,0.033 -0.082,0.02 H 5.659 5.645 l -0.174,0.183 -0.097,0.44 v 9.868 l 1.757,1.536 2.299,0.874 1.202,-0.203 0.777,-0.618 0.464,-1.197 0.164,-1.908 v -7.778 l -0.083,-0.835 -0.053,-0.217 -0.014,-0.058 h -0.014 l -0.102,-0.054 -0.506,-0.086 -0.802,-0.024 -0.459,-0.063 -0.483,-0.411 -0.183,-0.613 0.062,-0.439 0.406,-0.517 0.657,-0.159 h 6.416 l 0.367,0.072 0.483,0.372 0.145,0.551 v 0.188 l -0.111,0.396 -0.401,0.483 -0.618,0.14 -0.825,0.043 -0.449,0.121 -0.199,0.232 -0.077,0.535 v 9.473 L 14.635,-0.251 12.901,1.56 H 12.896 L 10.279,2.269 7.426,1.632 5.374,0.333 V 1.429 L 5.32,1.854 4.935,2.371 4.321,2.559 V 2.554 L 3.969,2.501 0.772,1.506 0.159,1.149 -0.092,0.463"/>
        </g>
        <g transform="translate(636.8047,159.9999)" id="g36">
          <path id="path38" style="fill:#231f20;fill-opacity:1;fill-rule:nonzero;stroke:none" d="m 0,0 0.454,-0.482 0.651,-0.122 0.778,-0.101 0.174,-0.082 0.052,-0.044 0.03,-0.11 0.072,-1.289 v -10.236 l -0.072,-0.372 -0.281,-0.319 -0.753,-0.12 -0.439,-0.063 -0.492,-0.357 -0.198,-0.623 v -0.019 l 0.062,-0.445 0.416,-0.511 0.608,-0.184 h 5.702 l 0.411,0.087 0.512,0.405 0.159,0.623 -0.087,0.416 -0.396,0.507 -0.599,0.164 H 6.74 L 5.958,-13.253 5.75,-13.22 5.663,-13.2 H 5.658 l -0.212,0.183 -0.072,0.44 v 9.868 l 1.757,1.536 2.274,0.874 1.202,-0.203 0.778,-0.618 0.449,-1.197 0.198,-1.908 v -7.778 l -0.073,-0.835 -0.063,-0.217 -0.024,-0.058 h -0.038 l -0.077,-0.054 -0.493,-0.086 -0.84,-0.024 -0.435,-0.063 -0.511,-0.411 -0.145,-0.613 0.053,-0.439 0.405,-0.517 0.633,-0.159 h 6.427 l 0.39,0.072 0.464,0.372 0.11,0.551 v 0.188 l -0.062,0.396 -0.386,0.483 -0.628,0.14 -0.844,0.043 -0.42,0.121 H 15.45 l -0.188,0.232 -0.073,0.535 v 9.473 L 14.634,-0.251 12.9,1.56 10.274,2.269 7.426,1.632 5.374,0.333 V 1.429 L 5.297,1.854 4.91,2.371 4.312,2.559 V 2.554 L 3.954,2.501 0.777,1.506 0.149,1.149 -0.087,0.463"/>
        </g>
        <g transform="translate(498.1055,61.1044)" id="g40">
          <path id="path42" style="fill:#231f20;fill-opacity:1;fill-rule:nonzero;stroke:none" d="M 0,0 -0.651,0.261 -1.135,0.106 -1.54,-0.261 -2.525,-0.922 -4.018,-1.313 -4.524,-1.265 -5.05,-1.019 -5.325,-0.667 -5.479,0.019 -5.558,1.26 v 10.023 l 4.129,-0.014 0.42,0.086 0.502,0.368 0.184,0.642 -0.092,0.434 -0.401,0.502 -0.613,0.16 h -4.137 v 0.091 l 0.008,4.283 -0.062,0.43 -0.415,0.502 -0.638,0.155 -0.41,-0.058 -0.512,-0.401 -0.139,-0.628 v -0.024 c 0,-1.294 -0.256,-2.293 -0.672,-3.018 l -0.778,-0.849 -1.1,-0.493 -0.661,-0.362 -0.251,-0.714 v -0.01 l 0.067,-0.44 0.454,-0.507 0.632,-0.149 H -8.7 V 0.096 l 0.241,-1.574 0.787,-1.27 1.222,-0.815 1.564,-0.271 2.974,0.71 2.13,1.579 0.028,0.039 0.015,0.028 0.154,0.667 -0.11,0.473 L 0,0"/>
        </g>
        <g transform="translate(448.2402,82.1649)" id="g44">
          <path id="path46" style="fill:#231f20;fill-opacity:1;fill-rule:nonzero;stroke:none" d="m 0,0 -0.396,0.55 -0.647,0.198 h -17.589 l -0.647,-0.198 -0.386,-0.526 -0.01,-0.019 -1.767,-4.998 -0.068,-0.439 0.164,-0.56 0.488,-0.328 0.546,-0.145 0.541,0.169 0.362,0.435 1.225,2.245 0.474,0.685 0.295,0.387 1.404,0.825 2.086,0.271 h 0.483 l 1.216,-0.068 0.353,-0.107 0.062,-0.033 h 0.035 l 0.126,-0.406 0.096,-0.965 v -18.029 l -0.155,-0.526 -0.304,-0.275 -0.912,-0.362 -1.459,-0.112 h -0.013 l -0.426,-0.077 -0.497,-0.4 -0.164,-0.628 0.044,-0.42 0.395,-0.512 0.648,-0.169 h 9.076 l 0.425,0.058 0.55,0.416 0.155,0.627 -0.097,0.43 -0.41,0.511 -0.623,0.164 h -0.043 c -1.033,0 -1.777,0.122 -2.217,0.368 l -0.429,0.401 -0.131,0.54 v 18.019 l 0.053,1.028 0.078,0.266 0.043,0.053 0.01,0.024 0.111,0.044 0.458,0.12 0.802,0.02 h 0.859 l 2.052,-0.271 1.415,-0.825 0.295,-0.387 c 0.405,-0.56 0.999,-1.526 1.733,-2.93 l 0.372,-0.435 0.506,-0.145 0.507,0.097 0.484,0.352 0.197,0.56 L 1.733,-4.993 0,0"/>
        </g>
        <g transform="translate(448.2588,150.0487)" id="g48">
          <path id="path50" style="fill:#231f20;fill-opacity:1;fill-rule:nonzero;stroke:none" d="M 0,0 1.768,1.468 V 1.492 C 2.922,2.163 4.293,2.718 5.833,3.148 V 2.453 L 5.828,-1.163 3.68,-2.762 1.681,-3.307 H 1.502 l -1.599,0.531 -0.361,0.492 -0.121,0.744 z m -2.211,-5.026 c 0.899,-0.555 1.941,-0.855 3.08,-0.855 h 0.02 l 2.791,0.623 2.346,1.415 0.714,-1.255 0.822,-0.531 1.018,-0.164 2.53,0.835 0.415,0.4 0.164,0.527 -0.154,0.584 h -0.01 L 11.129,-3.051 10.604,-2.887 9.985,-3.061 9.497,-3.215 9.338,-3.163 9.213,-3.051 9.054,-2.549 9.01,-1.689 V 7.238 L 8.672,9.179 6.991,11.264 C 6.2,11.767 5.195,12.046 3.974,12.172 H 3.964 L 2.999,12.22 c -1.42,0 -2.748,-0.347 -3.983,-0.956 L -2.718,9.99 -3.447,8.338 V 8.097 L -3.312,7.315 -2.857,6.653 V 6.639 l 1.279,-0.502 h 0.014 L -0.642,6.291 0.31,7.136 0.595,8.556 0.734,9.009 1.246,9.502 3.26,9.97 h 0.1 L 4.37,9.749 5.195,9.009 5.828,6.962 V 5.383 C 3.781,4.968 1.956,4.375 0.387,3.617 -1.042,2.926 -2.119,2.154 -2.857,1.29 -3.611,0.42 -4.002,-0.56 -4.002,-1.612 v -0.025 l 0.463,-1.95 1.328,-1.439"/>
        </g>
        <g transform="translate(487.9756,150.0487)" id="g52">
          <path id="path54" style="fill:#231f20;fill-opacity:1;fill-rule:nonzero;stroke:none" d="m 0,0 1.811,1.468 v 0.024 c 1.149,0.671 2.51,1.226 4.06,1.656 V -1.163 L 3.728,-2.762 1.753,-3.307 H 1.512 l -1.579,0.531 -0.343,0.492 -0.14,0.744 z m -2.153,-5.026 c 0.913,-0.555 1.931,-0.855 3.076,-0.855 h 0.018 l 2.787,0.623 2.371,1.415 0.671,-1.255 0.83,-0.531 1.004,-0.164 2.554,0.835 0.405,0.4 0.165,0.527 -0.165,0.584 -0.385,0.396 -0.536,0.164 -0.604,-0.174 -0.492,-0.154 H 9.531 l -0.149,0.052 -0.111,0.112 -0.184,0.502 -0.048,0.86 V 7.238 L 8.72,9.179 7.045,11.264 C 6.229,11.767 5.22,12.046 4.003,12.172 L 3.047,12.22 c -1.405,0 -2.742,-0.347 -3.984,-0.956 H -0.946 L -2.689,9.99 -3.423,8.338 V 8.097 L -3.264,7.315 -2.81,6.653 V 6.639 l 1.294,-0.502 0.908,0.154 0.97,0.845 0.285,1.42 0.165,0.453 0.501,0.493 1.975,0.468 H 3.39 L 4.418,9.749 5.22,9.009 5.871,6.962 V 5.383 C 3.819,4.968 1.994,4.375 0.439,3.617 -0.999,2.926 -2.076,2.154 -2.819,1.29 c -0.74,-0.87 -1.13,-1.85 -1.13,-2.902 v -0.025 l 0.434,-1.95 1.362,-1.439"/>
        </g>
        <g transform="translate(621.9004,150.0487)" id="g56">
          <path id="path58" style="fill:#231f20;fill-opacity:1;fill-rule:nonzero;stroke:none" d="M 0,0 1.811,1.468 V 1.492 C 2.979,2.163 4.345,2.718 5.89,3.148 V -1.163 L 3.723,-2.762 1.747,-3.307 H 1.53 l -1.579,0.531 -0.357,0.492 -0.13,0.744 z m -2.135,-5.026 c 0.899,-0.555 1.932,-0.855 3.057,-0.855 l 2.801,0.623 2.35,1.415 0.7,-1.255 0.84,-0.531 1.02,-0.164 2.515,0.835 0.42,0.4 0.14,0.527 -0.14,0.584 -0.377,0.396 -0.531,0.164 -0.613,-0.174 H 10.042 L 9.569,-3.215 9.361,-3.163 9.284,-3.051 9.105,-2.549 9.043,-1.689 V 7.238 L 8.738,9.179 7.039,11.264 c -0.792,0.503 -1.815,0.782 -3.013,0.908 l -0.97,0.048 c -1.424,0 -2.762,-0.347 -4.007,-0.956 L -2.685,9.99 -3.38,8.338 -3.424,8.121 V 8.097 l 0.16,-0.782 0.458,-0.662 V 6.639 l 1.289,-0.502 0.918,0.154 0.965,0.845 0.276,1.42 0.154,0.453 0.536,0.493 1.975,0.468 H 3.384 L 4.432,9.749 5.224,9.009 5.89,6.962 V 5.383 C 3.818,4.968 2.008,4.375 0.43,3.617 -0.971,2.926 -2.066,2.154 -2.806,1.29 -3.563,0.42 -3.94,-0.56 -3.94,-1.612 v -0.025 l 0.468,-1.95 1.337,-1.439"/>
        </g>
        <g transform="translate(703.9551,150.0487)" id="g60">
          <path id="path62" style="fill:#231f20;fill-opacity:1;fill-rule:nonzero;stroke:none" d="m 0,0 1.811,1.468 v 0.024 c 1.144,0.671 2.505,1.226 4.06,1.656 V -1.163 L 3.698,-2.762 1.729,-3.307 H 1.516 l -1.613,0.531 -0.342,0.492 -0.126,0.744 z m -2.158,-5.026 c 0.864,-0.555 1.912,-0.855 3.051,-0.855 h 0.009 l 2.796,0.623 2.352,1.415 0.7,-1.255 0.815,-0.531 1.043,-0.164 2.501,0.835 0.425,0.4 0.169,0.527 -0.169,0.584 -0.371,0.396 -0.56,0.164 -0.584,-0.174 h -0.01 L 9.545,-3.215 9.353,-3.163 9.251,-3.051 9.077,-2.549 9.01,-1.689 V 7.238 L 8.69,9.179 7.016,11.264 C 6.214,11.767 5.224,12.046 3.974,12.172 L 3.032,12.22 c -1.395,0 -2.757,-0.347 -3.998,-0.956 L -2.709,9.99 -3.423,8.338 -3.452,8.121 V 8.097 L -3.288,7.315 -2.819,6.653 V 6.639 l 1.24,-0.502 h 0.034 l 0.912,0.154 0.956,0.845 0.285,1.42 0.15,0.453 0.536,0.493 1.965,0.468 H 3.36 L 4.403,9.749 5.224,9.009 5.871,6.962 V 5.383 C 3.8,4.968 1.979,4.375 0.405,3.617 -1.009,2.926 -2.105,2.154 -2.819,1.29 -3.563,0.42 -3.988,-0.56 -3.988,-1.612 v -0.025 l 0.468,-1.95 1.362,-1.439"/>
        </g>
        <g transform="translate(434.5957,123.5131)" id="g64">
          <path id="path66" style="fill:#231f20;fill-opacity:1;fill-rule:nonzero;stroke:none" d="M 0,0 0.067,0.237 0.092,0.256 0.284,0.299 2.052,0.406 H 4.727 C 5.919,0.406 6.929,0 7.87,-0.864 l 1.057,-1.415 0.329,-1.728 -0.31,-2.052 -0.97,-1.55 -1.424,-0.99 -1.748,-0.314 h -4.871 v 7.904 z m -3.568,-19.655 -0.71,-0.57 -1.506,-0.237 h -0.039 l -0.43,-0.058 -0.507,-0.415 -0.164,-0.637 0.053,-0.415 0.421,-0.512 0.627,-0.15 h 8.078 l 0.42,0.053 0.536,0.382 0.154,0.637 -0.057,0.439 -0.407,0.512 -0.646,0.164 H 2.25 l -1.825,0.396 -0.367,0.411 -0.125,0.603 v 7.967 l 5.305,-0.029 h 0.03 c 2.153,0 3.983,0.642 5.441,1.883 l 1.656,2.259 c 0.371,0.84 0.527,1.83 0.527,2.878 v 0.034 c 0,1.042 -0.179,2.003 -0.633,2.848 l -1.96,2.216 C 8.85,2.076 7.208,2.627 5.427,2.627 H 5.412 -5.741 L -6.161,2.554 -6.663,2.163 -6.822,1.536 -6.76,1.091 -6.373,0.57 -5.741,0.406 h 0.019 l 1.782,-0.386 0.372,-0.42 0.13,-0.609 v -18.043 l -0.13,-0.603"/>
        </g>
        <g transform="translate(470.4062,109.5502)" id="g68">
          <path id="path70" style="fill:#231f20;fill-opacity:1;fill-rule:nonzero;stroke:none" d="M 0,0 V 0.019 C 0,2.192 0.42,3.872 1.222,5.098 L 2.578,6.421 4.354,6.885 6.132,6.421 7.46,5.098 C 8.251,3.872 8.643,2.192 8.643,0.019 V 0 c 0,-2.163 -0.392,-3.838 -1.164,-5.045 L 6.146,-6.393 4.354,-6.846 2.578,-6.393 1.222,-5.089 C 0.42,-3.867 0,-2.178 0,0 m 1.145,-8.425 c 0.974,-0.425 2.027,-0.618 3.209,-0.618 1.203,0 2.28,0.231 3.274,0.695 l 2.555,2.105 c 1.323,1.7 1.974,3.809 1.974,6.243 v 0.019 c 0,2.574 -0.651,4.713 -2.018,6.354 L 7.595,8.392 C 6.634,8.821 5.557,9.048 4.354,9.048 3.226,9.048 2.216,8.821 1.265,8.392 L -1.251,6.421 C -2.742,4.698 -3.472,2.549 -3.472,0.019 V 0 c 0,-1.362 0.164,-2.617 0.527,-3.713 0.347,-1.101 0.879,-2.076 1.593,-2.872 l 2.497,-1.84"/>
        </g>
        <g transform="translate(457.0615,115.9042)" id="g72">
          <path id="path74" style="fill:#231f20;fill-opacity:1;fill-rule:nonzero;stroke:none" d="M 0,0 V 1.883 L -0.088,2.395 -0.444,2.771 -1.067,2.974 -1.425,2.931 -5.085,1.806 -5.722,1.429 -5.93,0.739 l 0.049,-0.454 0.473,-0.512 0.662,-0.126 1.168,-0.053 0.313,-0.057 0.092,-0.02 0.068,-0.357 0.034,-0.729 v -10.352 l -0.077,-0.401 -0.194,-0.188 -0.535,-0.237 -0.942,-0.106 -0.415,-0.058 -0.537,-0.376 -0.159,-0.594 v -0.087 l 0.039,-0.42 0.391,-0.502 0.589,-0.15 h 7.353 l 0.42,0.053 0.536,0.386 0.179,0.633 -0.067,0.439 -0.415,0.512 -0.653,0.164 H 2.423 l -1.318,0.082 -0.714,0.188 -0.295,0.247 L 0,-11.921 v 8.329 c 0.912,1.482 1.844,2.491 2.762,3.109 l 0.666,0.232 H 3.447 L 3.771,-0.314 4.282,-0.556 5.696,-0.927 H 5.711 L 6.483,-0.816 7.324,-0.111 7.556,1.052 7.367,1.849 6.885,2.467 5.291,3.046 2.308,2.052 0,0"/>
        </g>
        <g transform="translate(590.3818,156.1278)" id="g76">
          <path id="path78" style="fill:#231f20;fill-opacity:1;fill-rule:nonzero;stroke:none" d="M 0,0 -0.845,0.193 H -7.672 L -8.271,0.13 -8.938,-0.396 -9.14,-1.251 l 0.101,-0.584 0.503,-0.662 0.864,-0.207 h 6.827 l 0.584,0.078 0.661,0.525 0.204,0.85 -0.092,0.589"/>
        </g>
        <g transform="translate(612.7119,151.3866)" id="g80">
          <path id="path82" style="fill:#231f20;fill-opacity:1;fill-rule:nonzero;stroke:none" d="m 0,0 c -0.845,-1.594 -1.753,-2.771 -2.719,-3.525 -0.994,-0.772 -2.032,-1.144 -3.137,-1.144 h -3.018 l -1.164,0.048 -0.391,0.043 -0.126,0.058 h -0.009 l -0.294,0.348 -0.155,0.956 v 18.038 l 0.101,0.705 0.275,0.372 0.623,0.231 1.337,0.107 0.426,0.067 0.507,0.391 0.154,0.614 -0.077,0.454 -0.362,0.492 -0.648,0.164 h -8.01 l -0.419,-0.063 -0.517,-0.41 -0.159,-0.637 0.072,-0.411 0.42,-0.521 0.603,-0.14 1.715,-0.386 0.338,-0.425 0.15,-0.652 V -3.24 l -0.135,-0.758 -0.257,-0.348 -0.603,-0.232 -1.121,-0.091 -0.424,-0.063 -0.507,-0.411 -0.169,-0.613 0.058,-0.434 0.396,-0.522 0.646,-0.149 h 15.716 l 0.638,0.213 0.4,0.521 1.869,5.257 v 0.02 L 2.081,-0.464 2.009,-0.048 1.617,0.468 0.98,0.623 0.41,0.458 0,0.009 V 0"/>
        </g>
        <g transform="translate(667.8594,152.7235)" id="g84">
          <path id="path86" style="fill:#231f20;fill-opacity:1;fill-rule:nonzero;stroke:none" d="M 0,0 -1.096,-0.816 -2.481,-1.101 -3.979,-0.806 -5.06,0.14 c -0.506,0.729 -0.772,1.695 -0.772,2.945 l 0.266,1.85 0.849,1.399 1.024,0.749 1.11,0.232 1.487,-0.309 1.154,-0.98 C 0.661,5.167 0.932,4.196 0.932,2.994 0.932,1.709 0.613,0.739 0,0 m -3.313,-7.59 2.227,-0.183 1.347,-0.212 1.931,-0.672 0.42,-0.386 0.092,-0.348 -0.188,-0.82 -0.633,-0.734 -1.734,-0.768 c -0.733,-0.188 -1.646,-0.28 -2.683,-0.28 l -1.261,0.024 -2.578,0.792 -0.787,0.676 -0.246,0.632 0.343,0.792 1.197,0.787 v 0.015 z M 6.798,8.865 6.035,9.564 5.002,9.772 4.524,9.753 2.66,8.923 1.53,8.111 C 0.31,9.053 -1.086,9.545 -2.525,9.545 L -3.129,9.502 C -4.558,9.367 -5.919,8.778 -7.126,7.716 L -8.729,5.625 -9.271,3.085 c 0,-1.038 0.233,-2.013 0.677,-2.872 l 1.468,-1.806 -1.289,-1.139 -0.657,-1.787 v -0.024 l 0.149,-0.84 0.874,-1.029 0.43,-0.265 -1.834,-1.217 -0.763,-0.995 -0.252,-1.129 v -0.02 l 0.681,-1.767 1.889,-1.332 c 1.298,-0.59 2.693,-0.942 4.239,-1.053 l 0.892,-0.015 c 1.709,0 3.356,0.276 4.94,0.874 1.168,0.43 2.076,0.991 2.718,1.69 l 0.937,2.535 v 0.01 l -0.685,2.033 -1.922,1.347 h -0.02 l -0.468,0.174 c -1.043,0.356 -2.51,0.622 -4.414,0.815 -1.553,0.16 -2.514,0.29 -2.925,0.348 l -0.96,0.338 -0.179,0.14 v 0.053 l 0.222,0.449 0.69,0.536 2.352,-0.434 c 1.713,0 3.268,0.593 4.629,1.728 l 1.623,2.057 0.541,2.506 v 0.009 c 0,1.275 -0.391,2.487 -1.193,3.549 L 3.254,6.625 3.355,6.726 3.467,6.625 3.969,6.258 5.412,5.668 5.751,5.712 h 0.014 l 1.019,0.719 0.415,1.26 v 0.01 L 6.817,8.865 H 6.798"/>
        </g>
        <g transform="translate(729.1582,152.7235)" id="g88">
          <path id="path90" style="fill:#231f20;fill-opacity:1;fill-rule:nonzero;stroke:none" d="m 0,0 -1.11,-0.816 -1.386,-0.285 -1.478,0.295 -1.082,0.946 c -0.525,0.729 -0.786,1.695 -0.786,2.945 l 0.284,1.85 0.846,1.399 1.024,0.749 1.11,0.232 1.468,-0.309 1.187,-0.98 C 0.646,5.167 0.937,4.196 0.951,2.994 0.937,1.709 0.618,0.739 0,0 m -3.308,-7.556 2.222,-0.217 1.366,-0.212 1.931,-0.672 0.396,-0.386 0.096,-0.348 -0.173,-0.82 -0.637,-0.734 -1.724,-0.768 c -0.748,-0.188 -1.666,-0.28 -2.732,-0.28 l -1.222,0.024 -2.603,0.792 -0.797,0.676 -0.216,0.632 0.352,0.792 1.183,0.787 v 0.015 z M 6.817,8.865 6.035,9.564 4.997,9.772 4.543,9.753 2.621,8.923 1.545,8.111 C 0.294,9.053 -1.086,9.545 -2.535,9.545 L -3.124,9.502 C -4.548,9.367 -5.91,8.778 -7.093,7.716 L -8.715,5.625 -9.271,3.085 c 0,-1.038 0.218,-2.013 0.681,-2.872 l 1.497,-1.806 -1.328,-1.139 -0.671,-1.787 v -0.024 l 0.169,-0.84 0.884,-1.029 0.464,-0.265 -1.888,-1.217 -0.744,-0.995 -0.266,-1.129 v -0.02 l 0.686,-1.767 1.878,-1.332 c 1.304,-0.59 2.719,-0.942 4.249,-1.053 l 0.927,-0.015 c 1.68,0 3.317,0.276 4.881,0.874 1.173,0.43 2.091,0.991 2.728,1.69 l 0.966,2.535 v 0.01 L 5.146,-7.063 3.211,-5.716 H 3.187 l -0.44,0.174 c -1.058,0.356 -2.516,0.622 -4.446,0.815 -1.507,0.16 -2.478,0.29 -2.898,0.348 l -0.961,0.338 -0.159,0.14 -0.043,0.053 0.222,0.449 0.671,0.536 2.371,-0.434 c 1.738,0 3.288,0.593 4.635,1.728 l 1.612,2.057 0.575,2.506 v 0.009 c 0,1.275 -0.411,2.487 -1.212,3.549 L 3.259,6.625 3.36,6.726 3.467,6.625 3.974,6.258 5.412,5.668 5.779,5.712 h 0.025 l 0.979,0.719 0.425,1.26 v 0.01 L 6.817,8.865"/>
        </g>
        <g transform="translate(690.668,146.1625)" id="g92">
          <path id="path94" style="fill:#231f20;fill-opacity:1;fill-rule:nonzero;stroke:none" d="m 0,0 0.145,0.092 v -0.623 l 0.052,-0.435 0.407,-0.521 0.618,-0.155 h 3.534 l 0.434,0.068 0.537,0.41 0.164,0.633 -0.087,0.415 -0.402,0.531 -0.646,0.14 H 4.722 L 3.515,0.758 3.321,0.946 3.259,1.168 V 15.281 L 3.196,15.701 2.863,16.222 2.27,16.396 H 2.25 L 1.95,16.372 -1.917,15.58 -2.603,15.189 -2.849,14.508 v -0.009 l 0.092,-0.435 0.41,-0.531 0.671,-0.135 1.159,-0.01 0.294,-0.034 h 0.102 l 0.063,-0.053 0.15,-0.313 0.053,-0.618 V 2.983 L -2.371,1.105 -4.539,0.492 -5.673,0.724 -6.716,1.931 c -0.285,0.613 -0.415,1.453 -0.415,2.52 v 10.83 l -0.232,0.773 -0.338,0.255 -0.386,0.078 -0.406,-0.054 -0.01,-0.009 -3.239,-0.797 -0.666,-0.357 -0.218,-0.662 v -0.009 l 0.072,-0.435 0.44,-0.531 0.652,-0.135 0.917,-0.044 0.184,-0.023 0.067,-0.281 0.005,-0.738 V 3.896 l 0.425,-2.67 1.313,-1.96 c 0.937,-0.84 2.119,-1.261 3.462,-1.261 h 0.028 l 2.859,0.662 2.178,1.313 L 0,0"/>
        </g>
        <g transform="translate(527.5186,155.6737)" id="g96">
          <path id="path98" style="fill:#231f20;fill-opacity:1;fill-rule:nonzero;stroke:none" d="M 0,0 C 0.145,1.023 0.43,1.903 0.826,2.627 L 1.951,3.877 3.365,4.351 3.68,4.36 5.143,4.061 6.315,3.119 C 6.943,2.274 7.334,1.188 7.378,-0.184 H -0.02 Z m 10.917,-8.16 0.197,0.648 -0.154,0.516 -0.41,0.348 v 0.024 L 9.917,-6.436 H 9.902 L 9.377,-6.59 9.024,-6.986 7.378,-8.488 5.017,-9.217 H 4.935 l -2.357,0.55 -1.66,1.7 c -0.739,1.231 -1.087,2.714 -1.087,4.5 v 0.068 l 9.859,-0.01 0.445,0.087 0.502,0.434 0.149,0.642 v 0.131 c 0,1.873 -0.574,3.563 -1.656,5.026 L 6.991,5.794 4.292,6.552 3.728,6.595 3.278,6.552 C 2.178,6.552 1.183,6.301 0.28,5.775 -0.628,5.249 -1.386,4.457 -2.009,3.438 V 3.428 C -3.09,1.714 -3.592,-0.241 -3.592,-2.409 v -0.005 c 0,-1.97 0.366,-3.752 1.154,-5.263 v -0.014 c 0.637,-1.26 1.506,-2.226 2.617,-2.863 1.1,-0.628 2.414,-0.946 3.925,-0.946 h 0.029 c 1.502,0 2.902,0.342 4.191,1.066 1.14,0.594 2.023,1.362 2.593,2.274"/>
        </g>
        <g transform="translate(454.2998,68.7572)" id="g100">
          <path id="path102" style="fill:#231f20;fill-opacity:1;fill-rule:nonzero;stroke:none" d="M 0,0 C 0.159,1.038 0.415,1.912 0.84,2.665 L 1.95,3.901 3.384,4.369 3.664,4.398 5.137,4.07 6.314,3.119 C 6.952,2.303 7.328,1.207 7.415,-0.165 h -7.454 z m 10.901,-8.141 0.203,0.638 -0.168,0.517 -0.387,0.361 v 0.034 L 9.912,-6.427 9.414,-6.566 9.019,-6.977 7.415,-8.459 5.035,-9.198 H 4.934 l -2.347,0.56 -1.67,1.695 c -0.744,1.202 -1.092,2.714 -1.092,4.505 v 0.077 l 9.879,-0.005 0.43,0.053 0.516,0.43 0.145,0.633 v 0.144 c 0,1.888 -0.569,3.592 -1.651,5.036 L 7,5.828 4.302,6.585 3.736,6.609 3.282,6.585 C 2.196,6.585 1.192,6.33 0.289,5.803 -0.613,5.267 -1.362,4.49 -2.014,3.466 V 3.437 C -3.076,1.738 -3.588,-0.217 -3.588,-2.38 v -0.01 c 0,-1.98 0.372,-3.761 1.145,-5.277 v -0.015 c 0.651,-1.236 1.515,-2.207 2.602,-2.863 1.125,-0.613 2.438,-0.941 3.964,-0.941 1.506,0 2.921,0.362 4.215,1.062 1.14,0.613 2.022,1.371 2.563,2.283"/>
        </g>
        <g transform="translate(564.4639,155.6737)" id="g104">
          <path id="path106" style="fill:#231f20;fill-opacity:1;fill-rule:nonzero;stroke:none" d="M 0,0 C 0.169,1.023 0.454,1.903 0.859,2.627 L 1.955,3.877 3.39,4.351 3.693,4.36 5.166,4.061 6.358,3.119 C 6.967,2.274 7.363,1.188 7.416,-0.184 h -7.421 z m 10.95,-8.16 0.198,0.648 -0.169,0.516 -0.405,0.348 v 0.024 L 9.941,-6.436 H 9.917 L 9.42,-6.59 9.048,-6.986 7.416,-8.488 5.036,-9.217 H 4.973 l -2.37,0.55 -1.647,1.7 c -0.738,1.231 -1.11,2.714 -1.11,4.5 v 0.068 l 9.873,-0.01 0.434,0.087 0.508,0.434 0.164,0.642 v 0.131 c 0,1.873 -0.58,3.563 -1.685,5.026 L 7.016,5.794 4.326,6.552 3.785,6.595 3.303,6.552 C 2.211,6.552 1.202,6.301 0.3,5.775 -0.579,5.249 -1.342,4.457 -1.984,3.438 V 3.428 C -3.037,1.714 -3.549,-0.241 -3.549,-2.409 v -0.005 c 0,-1.97 0.358,-3.752 1.14,-5.263 v -0.014 c 0.638,-1.26 1.502,-2.226 2.627,-2.863 1.086,-0.628 2.409,-0.946 3.905,-0.946 h 0.029 c 1.507,0 2.916,0.342 4.205,1.066 1.125,0.594 2.019,1.362 2.593,2.274"/>
        </g>
        <g transform="translate(546.6572,111.9984)" id="g108">
          <path id="path110" style="fill:#231f20;fill-opacity:1;fill-rule:nonzero;stroke:none" d="M 0,0 C 0.179,1.023 0.459,1.917 0.869,2.66 L 1.989,3.887 3.385,4.379 3.699,4.389 5.171,4.06 6.34,3.119 C 6.963,2.284 7.334,1.207 7.426,-0.179 H 7.286 -0.01 Z m 10.927,-8.141 0.202,0.647 -0.15,0.517 -0.39,0.338 v 0.01 H 10.564 L 9.941,-6.436 9.435,-6.571 9.054,-6.972 7.426,-8.474 5.041,-9.232 H 4.964 l -2.342,0.58 -1.689,1.714 c -0.71,1.207 -1.087,2.713 -1.087,4.48 v 0.092 l 9.869,-0.044 0.439,0.097 0.502,0.425 0.179,0.657 v 0.116 c 0,1.897 -0.584,3.592 -1.69,5.035 L 7.04,5.812 4.331,6.571 3.771,6.595 3.308,6.571 C 2.217,6.571 1.193,6.305 0.324,5.789 -0.584,5.257 -1.356,4.461 -1.979,3.442 -3.018,1.724 -3.558,-0.232 -3.558,-2.41 c 0,-1.984 0.381,-3.751 1.144,-5.257 0.638,-1.256 1.517,-2.246 2.607,-2.873 1.116,-0.642 2.444,-0.952 3.945,-0.952 h 0.009 c 1.498,0 2.936,0.353 4.22,1.049 1.12,0.622 1.981,1.385 2.56,2.302"/>
        </g>
        <g transform="translate(742.9961,155.6737)" id="g112">
          <path id="path114" style="fill:#231f20;fill-opacity:1;fill-rule:nonzero;stroke:none" d="M 0,0 C 0.149,1.023 0.439,1.903 0.85,2.627 L 1.926,3.877 3.351,4.351 3.693,4.36 5.142,4.061 6.334,3.119 C 6.972,2.274 7.344,1.188 7.401,-0.184 h -7.44 z m 10.916,-8.16 0.213,0.648 -0.174,0.516 -0.367,0.348 v 0.024 H 10.573 L 9.927,-6.436 9.4,-6.59 9.038,-6.986 7.401,-8.488 5.045,-9.217 H 4.958 l -2.39,0.55 -1.646,1.7 c -0.739,1.231 -1.091,2.714 -1.091,4.5 v 0.068 l 9.888,-0.01 0.434,0.087 0.502,0.434 0.15,0.642 v 0.131 c 0,1.873 -0.565,3.563 -1.675,5.026 L 7.015,5.794 4.297,6.552 3.736,6.595 3.273,6.552 C 2.196,6.552 1.173,6.301 0.299,5.775 -0.595,5.249 -1.362,4.457 -2.009,3.438 V 3.428 C -3.042,1.714 -3.573,-0.241 -3.573,-2.409 v -0.005 c 0,-1.97 0.372,-3.752 1.149,-5.263 v -0.014 c 0.632,-1.26 1.487,-2.226 2.607,-2.863 1.12,-0.628 2.423,-0.946 3.945,-0.946 1.497,0 2.926,0.342 4.229,1.066 1.111,0.594 1.995,1.362 2.559,2.274"/>
        </g>
        <g transform="translate(617.9463,118.0814)" id="g116">
          <path id="path118" style="fill:#231f20;fill-opacity:1;fill-rule:nonzero;stroke:none" d="m 0,0 -0.595,0.14 h -5.571 l -0.415,-0.053 -0.522,-0.42 -0.145,-0.608 0.059,-0.43 0.38,-0.517 0.643,-0.154 h 0.048 l 1.246,-0.184 0.212,-0.135 0.049,-0.13 -0.232,-0.932 -3.066,-8.145 -3.974,8.903 -0.087,0.372 v 0.034 l 0.107,0.033 0.415,0.141 0.797,0.043 h 0.009 l 0.406,0.077 0.526,0.377 0.149,0.647 -0.072,0.405 -0.395,0.536 -0.614,0.14 h -6.035 l -0.439,-0.053 -0.502,-0.42 -0.165,-0.608 0.049,-0.43 0.41,-0.517 0.647,-0.154 0.599,-0.068 0.294,-0.183 0.034,-0.034 0.01,-0.01 0.226,-0.299 0.363,-0.734 5.61,-12.244 c -0.56,-1.618 -1.086,-2.835 -1.511,-3.641 l -0.633,-0.859 -0.198,-0.183 -0.111,-0.015 -0.425,0.101 -0.724,0.401 -0.893,0.444 -0.724,0.159 -0.71,-0.096 -0.777,-0.637 -0.241,-1.043 0.159,-0.758 0.53,-0.652 v -0.014 l 2.053,-0.681 c 1.212,0 2.245,0.255 3.095,0.782 l 1.863,2.313 6.151,15.768 v 0.01 l 0.522,1.197 0.391,0.647 0.415,0.242 0.671,0.087 h 0.043 l 0.42,0.077 0.479,0.377 0.183,0.647 L 0.415,-0.536 0,0"/>
        </g>
        <g transform="translate(539.3818,102.8822)" id="g120">
          <path id="path122" style="fill:#231f20;fill-opacity:1;fill-rule:nonzero;stroke:none" d="M 0,0 -0.662,0.165 H -0.686 L -1.772,0.406 -1.961,0.628 -2.048,0.99 V 14.871 L -2.101,15.286 -2.438,15.827 -3.057,16 -3.424,15.948 -6.581,14.958 -7.214,14.596 -7.46,13.905 v -0.014 l 0.077,-0.425 0.44,-0.493 0.652,-0.135 0.835,-0.063 0.169,-0.067 0.049,-0.097 0.091,-1.352 V 1.135 L -5.238,0.681 -5.548,0.319 -6.291,0.165 h -0.02 L -6.692,0.111 -7.214,-0.241 -7.383,-0.835 v -0.073 l 0.039,-0.419 0.353,-0.449 0.559,-0.232 0.035,-0.01 h 5.735 l 0.434,0.053 0.517,0.41 0.164,0.614 -0.072,0.459"/>
        </g>
        <g transform="translate(534.8867,126.3715)" id="g124">
          <path id="path126" style="fill:#231f20;fill-opacity:1;fill-rule:nonzero;stroke:none" d="m 0,0 -0.705,-0.449 -0.487,-0.71 -0.179,-0.85 0.179,-0.816 L -0.705,-3.52 0,-3.993 0.82,-4.147 h 0.005 l 0.817,0.154 0.71,0.473 0.467,0.695 0.184,0.816 -0.184,0.85 -0.467,0.71 L 1.642,0 0.825,0.174"/>
        </g>
        <g transform="translate(527.6104,105.3739)" id="g128">
          <path id="path130" style="fill:#231f20;fill-opacity:1;fill-rule:nonzero;stroke:none" d="m 0,0 -0.671,0.265 -0.459,-0.101 -0.362,-0.333 -0.42,-0.444 -1.612,-1.232 -2.25,-0.535 -2.206,0.458 -1.624,1.42 c -0.743,1.101 -1.153,2.535 -1.153,4.355 v 0.145 c 0.048,1.598 0.256,2.916 0.652,3.959 0.381,1.067 0.951,1.815 1.641,2.346 l 1.768,0.715 0.574,-0.087 1.018,-0.565 0.382,-0.995 0.696,-1.376 1.105,-0.671 h 0.025 l 0.352,-0.024 1.183,0.377 0.666,0.758 0.203,1.019 -0.015,0.202 v 0.01 l -0.396,1.14 -0.975,1.023 -1.984,1.048 -2.516,0.347 c -1.115,0 -2.148,-0.226 -3.095,-0.685 l -2.564,-1.994 c -1.516,-1.772 -2.249,-4.066 -2.249,-6.789 0,-1.284 0.164,-2.447 0.526,-3.5 0.328,-1.053 0.864,-1.975 1.569,-2.753 l 2.458,-1.771 c 0.921,-0.401 1.921,-0.594 3.05,-0.594 h 0.035 c 1.4,0.005 2.709,0.285 3.848,0.84 1.154,0.565 2.149,1.405 3.018,2.491 l 0.256,0.7 L 0.318,-0.353 0,0"/>
        </g>
        <g transform="translate(596.9961,105.3739)" id="g132">
          <path id="path134" style="fill:#231f20;fill-opacity:1;fill-rule:nonzero;stroke:none" d="M 0,0 -0.681,0.265 -1.154,0.164 -1.521,-0.169 -1.912,-0.613 -3.544,-1.845 -5.75,-2.38 l -2.226,0.458 -1.632,1.42 c -0.719,1.101 -1.125,2.535 -1.125,4.355 v 0.145 c 0.039,1.598 0.227,2.916 0.613,3.959 0.396,1.067 0.956,1.815 1.656,2.346 l 1.768,0.715 0.579,-0.087 h 0.014 l 0.995,-0.565 0.396,-0.995 0.691,-1.376 1.085,-0.671 h 0.015 0.02 L -2.559,7.3 -1.337,7.677 h 0.01 l 0.646,0.758 0.194,1.019 v 0.212 l -0.397,1.14 -0.97,1.023 -1.989,1.048 -2.52,0.347 h -0.03 c -1.081,0 -2.124,-0.226 -3.06,-0.685 l -2.573,-1.994 c -1.507,-1.772 -2.26,-4.066 -2.26,-6.789 0,-1.284 0.164,-2.447 0.512,-3.5 0.347,-1.053 0.878,-1.975 1.583,-2.753 l 2.443,-1.771 c 0.936,-0.401 1.955,-0.594 3.095,-0.594 1.405,0.005 2.689,0.285 3.867,0.84 1.135,0.565 2.144,1.405 2.999,2.491 l 0.246,0.7 L 0.323,-0.353 0,0"/>
        </g>
        <g transform="translate(483.085,62.5097)" id="g136">
          <path id="path138" style="fill:#231f20;fill-opacity:1;fill-rule:nonzero;stroke:none" d="M 0,0 V 0 L -0.556,2.283 -2.168,3.997 C -3.003,4.562 -4.312,5.06 -6.199,5.576 l -2.014,0.623 -1.202,0.531 -0.666,0.623 -0.223,0.763 0.025,0.237 0.241,1.033 0.787,0.902 1.391,0.319 1.607,-0.347 c 1.43,-0.652 2.603,-1.69 3.511,-3.163 l 0.362,-0.401 0.517,-0.154 0.559,0.154 h 0.01 l 0.44,0.353 0.154,0.55 v 0.024 l -0.087,0.449 -1.647,3.892 -0.395,0.521 -0.613,0.208 h -0.015 l -0.743,-0.217 -0.228,-0.3 -0.092,-0.309 -0.303,0.179 c -1.115,0.526 -2.198,0.811 -3.283,0.811 -1.193,0 -2.28,-0.434 -3.226,-1.236 l -1.27,-1.704 -0.468,-2.139 0.507,-2.207 1.531,-1.685 h 0.014 l 1.57,-0.767 2.385,-0.763 V 2.37 l 0.197,-0.058 1.777,-0.613 1.188,-0.55 0.748,-0.758 0.252,-1.067 -0.194,-0.898 -0.526,-0.734 -1.763,-0.7 h -0.28 c -1.062,0 -2.119,0.352 -3.172,1.111 -1.033,0.709 -1.883,1.636 -2.534,2.799 l -0.387,0.416 -0.507,0.149 -0.502,-0.096 -0.009,-0.01 -0.464,-0.396 -0.183,-0.541 V 0.42 l 0.072,-0.449 1.579,-4.269 0.411,-0.555 0.666,-0.203 0.338,0.068 0.487,0.343 0.179,0.521 0.014,0.106 0.03,-0.024 0.173,-0.077 0.952,-0.41 c 1.125,-0.459 2.225,-0.71 3.258,-0.71 h 0.025 c 1.438,0.01 2.766,0.536 3.741,1.526 l 1.12,1.68 L 0,0"/>
        </g>
        <g transform="translate(478.4404,74.4301)" id="g140">
          <path id="path142" style="fill:#231f20;fill-opacity:1;fill-rule:nonzero;stroke:none" d="M 0,0 -0.024,-0.048"/>
        </g>
        <g transform="translate(504.4639,122.8134)" id="g144">
          <path id="path146" style="fill:#231f20;fill-opacity:1;fill-rule:nonzero;stroke:none" d="M 0,0 0.695,-0.439 1.526,-0.604 2.342,-0.439 3.042,0 3.524,0.719 3.689,1.521 3.524,2.361 3.042,3.075 2.342,3.539 1.526,3.708 V 3.693 3.708 L 0.695,3.539 0,3.075 -0.482,2.361 -0.656,1.521 -0.482,0.719"/>
        </g>
        <g transform="translate(509.6396,102.8822)" id="g148">
          <path id="path150" style="fill:#231f20;fill-opacity:1;fill-rule:nonzero;stroke:none" d="M 0,0 -0.637,0.165 -1.733,0.406 -1.94,0.628 -2.013,0.976 V 14.871 L -2.09,15.296 -2.433,15.827 -3.027,16 -3.423,15.948 -6.557,14.982 -7.198,14.596 -7.44,13.905 l 0.068,-0.439 0.458,-0.493 0.638,-0.111 0.831,-0.087 0.202,-0.033 v -0.131 l 0.101,-1.327 V 1.12 L -5.219,0.681 -5.542,0.319 -6.276,0.165 -6.682,0.111 -7.179,-0.241 -7.372,-0.835 v -0.073 l 0.067,-0.419 0.348,-0.449 0.551,-0.232 0.023,-0.01 h 5.746 l 0.42,0.053 0.522,0.41 0.154,0.614 -0.067,0.449"/>
        </g>
        <g transform="translate(497.6367,126.1254)" id="g152">
          <path id="path154" style="fill:#231f20;fill-opacity:1;fill-rule:nonzero;stroke:none" d="m 0,0 -0.763,0.545 -0.946,0.16 -2.356,-0.521 -1.936,-1.531 c -0.7,-0.806 -1.202,-1.791 -1.56,-2.965 -0.333,-1.163 -0.511,-2.486 -0.511,-3.978 v -0.236 h -2.526 l -0.429,-0.058 -0.517,-0.401 -0.135,-0.647 0.063,-0.415 0.352,-0.488 0.202,-0.092 0.464,-0.077 h 2.545 v -0.236 l -0.019,-10.889 -0.025,-0.511 -0.052,-0.256 h -0.015 v -0.005 l -0.14,-0.145 -0.691,-0.222 -1.275,-0.106 -0.439,-0.063 -0.473,-0.41 -0.193,-0.638 0.087,-0.405 0.382,-0.521 0.636,-0.15 h 8.01 l 0.445,0.053 0.521,0.406 0.179,0.617 -0.087,0.459 -0.405,0.488 -0.653,0.164 -1.356,0.048 -0.41,0.058 -0.237,0.039 h -0.034 l -0.507,0.396 -0.164,0.825 v 11.004 h 3.11 l 0.41,0.058 0.531,0.405 0.154,0.609 -0.067,0.454 -0.387,0.482 -0.641,0.17 h -3.11 v 2.409 c 0,1.337 0.164,2.337 0.502,3.008 v 0.014 l 0.353,0.579 0.111,0.087 0.063,0.02 1.115,-0.425 0.724,-0.387 0.696,-0.149 h 0.023 l 1.415,0.464 0.473,0.617 0.179,0.836 v 0.005 L 0.498,-0.695 0,0"/>
        </g>
        <g transform="translate(556.3047,149.4506)" id="g156">
          <path id="path158" style="fill:#231f20;fill-opacity:1;fill-rule:nonzero;stroke:none" d="m 0,0 v 0.004 l -0.575,2.275 -1.603,1.704 c -0.831,0.56 -2.163,1.048 -4.027,1.584 L -8.223,6.156 -9.43,6.691 v 0.02 l -0.685,0.613 -0.198,0.792 0.009,0.227 0.256,1.028 0.797,0.922 1.371,0.295 1.617,-0.338 C -4.853,9.608 -3.67,8.555 -2.758,7.078 L -2.4,6.677 -1.884,6.523 -1.323,6.667 v 0.01 l 0.449,0.362 0.169,0.556 -0.116,0.444 v 0.019 l -1.642,3.906 -0.386,0.507 -0.613,0.222 h -0.01 l -0.734,-0.222 -0.246,-0.295 -0.077,-0.309 -0.324,0.15 c -1.095,0.546 -2.177,0.821 -3.268,0.821 h -0.015 c -1.154,0 -2.264,-0.425 -3.201,-1.222 L -12.621,9.897 -13.065,7.778 V 7.753 l 0.521,-2.196 1.482,-1.661 0.01,-0.024 L -9.454,3.1 -7.078,2.341 V 2.356 L -6.871,2.293 -5.084,1.708 -3.916,1.144 V 1.129 l 0.748,-0.777 0.251,-1.038 -0.192,-0.908 -0.532,-0.729 -1.767,-0.7 h -0.015 l -0.264,-0.009 c -1.068,0 -2.121,0.357 -3.168,1.119 -1.004,0.725 -1.878,1.633 -2.544,2.801 l -0.348,0.401 -0.517,0.178 h -0.014 l -0.517,-0.12 H -12.81 L -13.273,0.965 -13.456,0.41 V 0.391 l 0.081,-0.435 1.599,-4.273 0.395,-0.555 0.682,-0.203 0.346,0.073 0.441,0.342 0.217,0.522 0.024,0.111 0.014,-0.034 0.16,-0.067 0.946,-0.411 c 1.163,-0.463 2.206,-0.705 3.264,-0.705 1.487,0 2.771,0.532 3.761,1.516 l 1.13,1.695 L 0,0"/>
        </g>
        <g transform="translate(551.7754,161.3324)" id="g160">
          <path id="path162" style="fill:#231f20;fill-opacity:1;fill-rule:nonzero;stroke:none" d="M 0,0 V -0.024"/>
        </g>
        <g transform="translate(561.8516,116.348)" id="g164">
          <path id="path166" style="fill:#231f20;fill-opacity:1;fill-rule:nonzero;stroke:none" d="M 0,0 0.464,-0.492 1.11,-0.623 1.902,-0.719 2.053,-0.796 2.12,-0.85 2.145,-0.96 2.217,-2.25 v -10.24 l -0.072,-0.367 -0.276,-0.319 -0.759,-0.12 -0.42,-0.058 -0.521,-0.373 -0.184,-0.603 v -0.024 l 0.059,-0.435 0.42,-0.511 0.637,-0.189 h 5.664 l 0.41,0.058 0.521,0.41 0.141,0.614 -0.059,0.459 -0.395,0.482 -0.618,0.17 H 6.74 l -0.772,0.033 -0.212,0.024 -0.054,0.025 H 5.654 l -0.183,0.154 -0.107,0.473 v 9.864 l 1.763,1.56 2.298,0.854 1.221,-0.202 0.739,-0.638 0.478,-1.164 0.169,-1.926 v -7.778 l -0.067,-0.84 -0.077,-0.213 -0.015,-0.048 -0.01,-0.009 -0.077,-0.054 -0.521,-0.082 -0.841,-0.033 -0.439,-0.058 -0.488,-0.421 -0.144,-0.632 0.057,-0.406 0.382,-0.507 0.632,-0.169 h 6.431 l 0.392,0.058 0.468,0.382 0.149,0.565 -0.013,0.164 -0.087,0.391 -0.382,0.483 -0.613,0.15 -0.865,0.057 -0.429,0.112 v 0.009 l -0.184,0.203 -0.111,0.569 v 9.473 L 14.635,-0.255 12.896,1.55 10.294,2.246 H 10.279 L 7.436,1.608 5.364,0.319 V 1.405 L 5.316,1.835 4.925,2.366 4.326,2.53 3.955,2.487 H 3.936 L 0.759,1.492 0.155,1.115 -0.072,0.445"/>
        </g>
        <g transform="translate(475.1904,148.5331)" id="g168">
          <path id="path170" style="fill:#231f20;fill-opacity:1;fill-rule:nonzero;stroke:none" d="m 0,0 -1.332,-1.318 -1.666,-0.415 c -1.101,0 -1.945,0.197 -2.568,0.54 l -1.265,1.449 v 8.13 l 1.583,2.091 2.381,0.69 1.646,-0.439 L 0.092,9.27 C 0.787,8.092 1.169,6.634 1.169,4.881 1.169,2.791 0.772,1.178 0,0 m 2.724,11.273 -2.304,1.84 c -0.858,0.411 -1.839,0.594 -2.911,0.594 l -2.795,-0.594 -1.545,-1.014 v 0.792 l -0.237,0.792 -0.314,0.251 -0.41,0.082 -0.444,-0.072 -3.438,-1 -0.628,-0.386 -0.188,-0.676 v -0.019 l 0.049,-0.44 0.438,-0.516 0.648,-0.15 h 0.024 l 0.854,-0.063 0.222,-0.058 h 0.01 l 0.015,-0.087 0.111,-1.376 V -7.074 l -0.092,-0.448 -0.28,-0.343 -0.73,-0.135 -0.425,-0.078 -0.497,-0.352 -0.164,-0.599 -0.029,-0.154 0.034,-0.396 0.381,-0.454 0.566,-0.15 h 5.923 l 0.416,0.068 0.527,0.41 0.125,0.614 -0.034,0.424 -0.43,0.521 L -5.432,-8 h -0.023 l -1.12,0.222 -0.165,0.222 -0.091,0.333 v 4.065 l 1.535,-0.772 c 0.879,-0.295 1.83,-0.449 2.911,-0.449 1.053,0 2.032,0.203 2.892,0.661 l 2.279,1.926 c 1.265,1.695 1.907,3.94 1.907,6.649 v 0.039 c 0,2.606 -0.652,4.751 -1.969,6.377"/>
        </g>
        <path id="path172" style="fill:#231f20;fill-opacity:1;fill-rule:nonzero;stroke:none" d="m 268.791,113.514 h -62.236 v 44.536 h 62.236 z m 7.493,-14.17 h 0.194 c 2.187,0 4.219,0.555 5.682,1.979 1.42,1.376 2.018,3.331 2.062,5.437 v 57.899 c 0,2.163 -0.609,4.191 -2.062,5.615 l -0.024,0.01 c -1.439,1.396 -3.452,1.97 -5.658,1.97 h -0.232 c -2.642,0 -4.94,-1.347 -6.238,-3.568 h -64.529 c -1.313,2.235 -3.679,3.568 -6.354,3.568 h -0.28 c -2.187,0 -4.21,-0.55 -5.663,-1.98 -1.473,-1.405 -2.057,-3.428 -2.057,-5.61 V 61.814 c 0,-2.023 0.811,-3.984 2.312,-5.417 1.463,-1.463 3.351,-2.298 5.408,-2.298 h 0.169 c 2.047,0 3.94,0.835 5.345,2.312 1.366,1.419 2.158,3.308 2.197,5.287 v 41.19 h 63.452 c 1.298,-2.212 3.596,-3.544 6.238,-3.544 z m -219.359,32.503 0.01,0.574 c 0.019,0.507 0.029,3.312 0.067,7.233 0.015,1.453 0.025,3.056 0.025,3.331 l 0.024,0.232 c -0.024,0.454 -0.024,1.193 -0.024,2.356 v 1.309 c 0,2.95 -0.048,6.673 -0.073,11.22 1.29,1.618 2.028,3.515 2.115,5.515 v 0.468 c 0,2.626 -1.26,5.007 -3.418,6.639 -1.555,1.346 -3.588,2.051 -5.741,2.051 h -0.15 c -2.307,-0.019 -4.466,-0.898 -6.127,-2.564 -1.665,-1.569 -2.525,-3.741 -2.525,-6.16 v -0.56 c 0,-1.695 0.116,-5.596 0.319,-11.684 0.101,-4.688 0.14,-16.32 0.14,-19.342 v -0.671 C 41.296,106.624 40.625,79.62 39.732,71.451 37.236,46.33 30.988,25.979 21.057,10.404 L 20.526,8.26 c 0,-1.149 0.304,-2.144 0.995,-2.834 0.704,-0.705 1.689,-1 2.843,-1 h 0.024 c 1.082,0 2.1,0.416 2.83,1.183 12.906,13.977 21.33,30.442 25.309,49.417 2.288,11.341 3.891,46.046 4.398,76.821 M 160.558,74.16 h -0.242 c -3.679,0.009 -6.609,-2.134 -7.566,-5.442 h -46.263 l 0.01,95.748 v 0.019 c 0,2.048 -0.797,3.955 -2.207,5.432 -1.405,1.473 -3.288,2.337 -5.345,2.337 H 98.81 c -2.066,0 -3.993,-0.84 -5.432,-2.322 -1.487,-1.439 -2.313,-3.371 -2.313,-5.422 l 0.01,-0.112 V 61.674 c -0.01,-2.168 0.57,-4.186 2.048,-5.61 1.477,-1.42 3.495,-1.965 5.687,-1.965 h 0.236 c 2.704,0 5.051,1.313 6.383,3.529 h 55.109 c 2.125,0 4.167,0.84 5.727,2.371 1.568,1.492 2.466,3.538 2.491,5.736 v 0.198 c 0,2.143 -0.855,4.156 -2.361,5.726 -1.487,1.584 -3.544,2.501 -5.722,2.501 z M 344.019,61.809 c 0,-2.018 0.787,-3.944 2.211,-5.398 1.405,-1.492 3.38,-2.312 5.485,-2.312 h 0.169 c 2.037,0 3.959,0.835 5.417,2.298 1.444,1.424 2.274,3.322 2.308,5.359 v 95.835 h 30.278 c 2.138,0 4.172,0.835 5.755,2.365 1.579,1.512 2.477,3.544 2.477,5.765 v 0.169 c 0,2.134 -0.855,4.176 -2.347,5.731 -1.487,1.579 -3.51,2.497 -5.702,2.497 h -0.386 c -3.684,0.009 -6.595,-2.105 -7.551,-5.447 l -71.824,0.015 c -1.473,0 -2.98,-0.42 -4.09,-1.502 -1.081,-1.11 -1.483,-2.636 -1.483,-4.142 v -0.02 c 0,-1.458 0.425,-2.935 1.502,-4.007 1.15,-1.047 2.622,-1.424 4.114,-1.424 h 33.667 V 61.809"/>
        <g transform="translate(92.0215,313.4637)" id="g174"/>
        <g transform="translate(248.9663,135.7865)" id="g178">
          <path id="path180" style="fill:#e61d25;fill-opacity:1;fill-rule:nonzero;stroke:none" d="m 0,0 c 0,-6.233 -5.036,-11.313 -11.288,-11.313 -6.248,0 -11.284,5.08 -11.284,11.313 0,6.238 5.036,11.322 11.284,11.322 C -5.036,11.322 0,6.238 0,0"/>
        </g>
      </g>
    </g>
  </g>
</svg>